<?xml version="1.0" encoding="utf-8"?>
<!-- Generator: Adobe Illustrator 16.0.0, SVG Export Plug-In . SVG Version: 6.00 Build 0)  -->
<!DOCTYPE svg PUBLIC "-//W3C//DTD SVG 1.1//EN" "http://www.w3.org/Graphics/SVG/1.1/DTD/svg11.dtd">
<svg version="1.1" id="Capa_1" xmlns="http://www.w3.org/2000/svg" xmlns:xlink="http://www.w3.org/1999/xlink" x="0px" y="0px"
	 width="682.522px" height="208px" viewBox="0 24.573 682.522 208" enable-background="new 0 24.573 682.522 208"
	 xml:space="preserve">
<path fill="#FFFFFF" d="M97.807,183.147c0,0-18.687,6.541-27.844,3.736l3.177-3.736c0,0-9.717-1.496-23.359-13.082L66.6,165.02
	c0,0-16.632-14.576-19.996-22.053l6.167-2.988c0,0-5.045-7.851-2.429-31.77c0,0,12.333,21.49,21.864,24.667l3.924-2.616
	c0,0,8.222,13.081,15.324,30.088l0.187-8.035c0,0-10.278-16.26-12.708-20.185l1.869-0.561c0,0-2.803-17.379-6.914-21.49
	c0,0,7.102,1.121,16.07,5.606c0,0,0.935-14.203-1.682-17.753c0,0,5.046-0.374,6.167,1.119c0,0,1.869-10.649,1.495-19.994
	c0,0,14.015,9.718,14.202,19.622c0,0,2.617-1.684,5.42-1.121c0,0,0.373,14.575,0,19.622c0,0,5.296-10.029,14.265-10.527
	c0,0-2.242,13.704-7.725,24.169l2.243,0.996c0,0-9.718,5.979-12.458,26.413c0,0,17.69-14.203,17.939-19.935
	c0,0,3.239,2.243,4.236,4.485c0,0,5.232-7.213,8.721-9.463c0,0-0.498,2.748,3.738,0c1.494-0.753,13.205-7.479,9.219-12.463
	c0,0,4.235,0.497-3.488,22.922l2.74,1.497c0,0-2.242,4.234-8.471,11.211l4.982,3.738c0,0-6.229,5.979-19.934,12.209
	c0,0,3.987,5.979,13.206,9.717C144.776,182.149,125.092,193.86,97.807,183.147z"/>
<g>
	<path fill="#FFFFFF" d="M201.774,115.881c-0.147,1.859-0.257,3.681-0.33,5.466c-0.073,1.785-0.16,3.583-0.257,5.392
		c0.537,0,1.54-0.012,3.007-0.037c1.467-0.022,3.056-0.085,4.768-0.183c-0.049,0.146-0.074,0.415-0.074,0.807v0.733v0.807
		c0,0.343,0.025,0.587,0.074,0.733c-0.636-0.049-1.296-0.085-1.98-0.109c-0.686-0.024-1.419-0.037-2.2-0.037h-3.594
		c-0.049,0.195-0.11,0.979-0.183,2.347c-0.074,1.371-0.136,2.997-0.183,4.88c-0.05,1.883-0.086,3.851-0.111,5.903
		c-0.025,2.053-0.036,3.889-0.036,5.502c0,1.369,0.036,2.713,0.11,4.033c0.073,1.32,0.305,2.508,0.696,3.559
		c0.391,1.053,0.978,1.896,1.761,2.531c0.781,0.637,1.907,0.953,3.374,0.953c0.391,0,0.917-0.049,1.577-0.146
		c0.66-0.098,1.234-0.221,1.724-0.367v1.762c-0.832,0.146-1.749,0.328-2.75,0.549c-1.003,0.221-1.969,0.33-2.897,0.33
		c-3.081,0-5.354-0.758-6.822-2.271c-1.467-1.516-2.2-3.742-2.2-6.676c0-1.32,0.024-2.752,0.074-4.293
		c0.047-1.539,0.11-3.227,0.183-5.061c0.073-1.833,0.134-3.861,0.183-6.088c0.048-2.226,0.074-4.706,0.074-7.445h-2.347
		c-0.393,0-0.807,0.014-1.247,0.037c-0.441,0.024-0.906,0.062-1.394,0.109c0.048-0.294,0.085-0.574,0.11-0.844
		c0.024-0.269,0.037-0.551,0.037-0.844c0-0.244-0.013-0.488-0.037-0.732c-0.025-0.245-0.062-0.488-0.11-0.734
		c2.2,0.147,3.814,0.221,4.841,0.221c-0.05-0.978-0.086-2.201-0.11-3.667c-0.026-1.468-0.086-2.981-0.183-4.549l6.088-2.566h0.365
		V115.881z"/>
	<path fill="#FFFFFF" d="M214.061,134.77c1.05-2.322,2.432-4.206,4.144-5.648c1.711-1.44,3.631-2.494,5.759-3.153
		c2.127-0.66,4.241-0.99,6.345-0.99c2.15,0,4.278,0.33,6.381,0.99c2.102,0.659,4.009,1.713,5.722,3.153
		c1.711,1.442,3.092,3.326,4.145,5.648c1.05,2.323,1.576,5.146,1.576,8.472c0,3.327-0.526,6.151-1.576,8.471
		c-1.053,2.324-2.434,4.209-4.145,5.648c-1.713,1.443-3.62,2.457-5.722,3.045c-2.104,0.588-4.231,0.881-6.381,0.881
		c-2.104,0-4.218-0.293-6.345-0.881c-2.127-0.588-4.047-1.602-5.759-3.045c-1.712-1.439-3.093-3.324-4.144-5.648
		c-1.053-2.32-1.577-5.145-1.577-8.471C212.484,139.917,213.009,137.094,214.061,134.77z M219.489,149.184
		c0.367,1.906,0.99,3.605,1.87,5.098c0.881,1.492,2.054,2.678,3.521,3.559c1.467,0.881,3.275,1.32,5.428,1.32
		c2.15,0,3.96-0.439,5.428-1.32c1.467-0.881,2.64-2.064,3.521-3.559c0.88-1.49,1.503-3.191,1.87-5.098
		c0.367-1.908,0.55-3.889,0.55-5.942c0-2.053-0.183-4.034-0.55-5.94c-0.367-1.907-0.99-3.605-1.87-5.1
		c-0.881-1.49-2.054-2.676-3.521-3.558c-1.467-0.88-3.277-1.319-5.428-1.319c-2.153,0-3.961,0.439-5.428,1.319
		c-1.467,0.882-2.641,2.066-3.521,3.558c-0.88,1.493-1.503,3.191-1.87,5.1c-0.367,1.906-0.55,3.889-0.55,5.94
		C218.938,145.295,219.122,147.276,219.489,149.184z"/>
	<path fill="#FFFFFF" d="M271.642,130.918c-0.709-0.243-1.43-0.365-2.164-0.365c-1.173,0-2.226,0.27-3.154,0.807
		c-0.929,0.539-1.712,1.26-2.347,2.164c-0.636,0.906-1.125,1.979-1.467,3.228c-0.342,1.247-0.513,2.58-0.513,3.997v8.069
		c0,3.277,0.011,5.785,0.037,7.52c0.024,1.736,0.11,3.143,0.256,4.219c-0.979-0.1-1.956-0.146-2.934-0.146
		c-1.077,0-2.104,0.047-3.081,0.146c0.147-1.662,0.231-3.926,0.257-6.785c0.024-2.861,0.036-6.369,0.036-10.527v-2.347
		c0-1.907-0.012-4.108-0.036-6.604c-0.025-2.494-0.11-5.354-0.257-8.581c0.537,0.099,1.051,0.184,1.54,0.257
		c0.488,0.072,1.002,0.109,1.541,0.109c0.439,0,0.904-0.037,1.394-0.109c0.488-0.073,1.002-0.158,1.54-0.257
		c-0.196,1.761-0.306,3.153-0.33,4.182c-0.025,1.025-0.036,2.006-0.036,2.935l0.146,0.072c2.885-5.281,6.113-7.922,9.683-7.922
		c0.44,0,0.818,0.025,1.137,0.073c0.317,0.05,0.721,0.173,1.21,0.366c-0.245,0.587-0.392,1.479-0.44,2.679
		c-0.049,1.197-0.073,2.285-0.073,3.264l-0.514,0.367C272.828,131.432,272.351,131.165,271.642,130.918z"/>
	<path fill="#FFFFFF" d="M279.271,134.77c1.05-2.322,2.432-4.206,4.144-5.648c1.711-1.44,3.631-2.494,5.759-3.153
		c2.126-0.66,4.241-0.99,6.345-0.99c2.151,0,4.278,0.33,6.381,0.99c2.102,0.659,4.009,1.713,5.722,3.153
		c1.711,1.442,3.092,3.326,4.146,5.648c1.051,2.323,1.576,5.146,1.576,8.472c0,3.327-0.525,6.151-1.576,8.471
		c-1.052,2.324-2.435,4.209-4.146,5.648c-1.713,1.443-3.62,2.457-5.722,3.045c-2.103,0.588-4.23,0.881-6.381,0.881
		c-2.104,0-4.218-0.293-6.345-0.881c-2.128-0.588-4.047-1.602-5.759-3.045c-1.712-1.439-3.094-3.324-4.144-5.648
		c-1.053-2.32-1.577-5.145-1.577-8.471C277.694,139.917,278.218,137.094,279.271,134.77z M284.699,149.184
		c0.367,1.906,0.991,3.605,1.871,5.098c0.88,1.492,2.054,2.678,3.521,3.559c1.467,0.881,3.275,1.32,5.428,1.32
		c2.151,0,3.96-0.439,5.428-1.32c1.467-0.881,2.641-2.064,3.521-3.559c0.88-1.49,1.504-3.191,1.87-5.098
		c0.367-1.908,0.55-3.889,0.55-5.942c0-2.053-0.183-4.034-0.55-5.94c-0.366-1.907-0.99-3.605-1.87-5.1
		c-0.88-1.49-2.054-2.676-3.521-3.558c-1.467-0.88-3.277-1.319-5.428-1.319c-2.153,0-3.961,0.439-5.428,1.319
		c-1.467,0.882-2.641,2.066-3.521,3.558c-0.88,1.493-1.504,3.191-1.871,5.1c-0.367,1.906-0.55,3.889-0.55,5.94
		C284.147,145.295,284.331,147.276,284.699,149.184z"/>
	<path fill="#FFFFFF" d="M343.27,131.616c-1.419-1.883-3.374-2.824-5.868-2.824c-3.423,0-5.93,1.054-7.52,3.154
		c-1.589,2.104-2.384,5.062-2.384,8.876v6.235c0,2.199,0.036,4.51,0.109,6.932s0.231,4.609,0.477,6.564
		c-1.125-0.1-2.226-0.146-3.301-0.146c-1.076,0-2.177,0.049-3.301,0.146c0.243-1.955,0.403-4.145,0.477-6.564
		c0.073-2.422,0.11-4.732,0.11-6.932v-7.629c0-2.2-0.037-4.511-0.11-6.933c-0.073-2.42-0.233-4.683-0.477-6.784
		c1.368,0.244,2.469,0.366,3.301,0.366c0.391,0,0.817-0.037,1.284-0.11c0.464-0.072,1.014-0.157,1.65-0.256
		c-0.146,1.956-0.22,3.912-0.22,5.867h0.146c1.372-2.103,3.017-3.729,4.93-4.878c1.913-1.147,4.192-1.724,6.843-1.724
		c1.373,0,2.759,0.195,4.157,0.587c1.397,0.392,2.661,1.062,3.789,2.018c1.128,0.953,2.048,2.25,2.761,3.889
		c0.71,1.639,1.066,3.729,1.066,6.271c0,2.104-0.049,4.267-0.146,6.491c-0.099,2.226-0.146,4.583-0.146,7.078v4.77
		c0,0.783,0.011,1.553,0.037,2.311c0.023,0.76,0.061,1.48,0.109,2.164c-0.991-0.1-2.029-0.146-3.118-0.146
		c-1.041,0-2.055,0.049-3.043,0.146c0.098-2.541,0.207-5.158,0.33-7.85c0.121-2.688,0.184-5.451,0.184-8.289v-4.475
		C345.398,136.273,344.688,133.499,343.27,131.616z"/>
	<path fill="#FFFFFF" d="M368.944,115.881c-0.147,1.859-0.257,3.681-0.33,5.466c-0.074,1.785-0.16,3.583-0.257,5.392
		c0.538,0,1.54-0.012,3.007-0.037c1.467-0.022,3.056-0.085,4.768-0.183c-0.049,0.146-0.073,0.415-0.073,0.807v0.733v0.807
		c0,0.343,0.024,0.587,0.073,0.733c-0.636-0.049-1.296-0.085-1.98-0.109c-0.686-0.024-1.419-0.037-2.2-0.037h-3.594
		c-0.049,0.195-0.11,0.979-0.184,2.347c-0.072,1.371-0.136,2.997-0.183,4.88c-0.05,1.883-0.086,3.851-0.111,5.903
		c-0.024,2.055-0.036,3.889-0.036,5.502c0,1.369,0.036,2.713,0.11,4.033c0.073,1.32,0.305,2.508,0.697,3.559
		c0.391,1.053,0.978,1.896,1.761,2.531c0.781,0.637,1.907,0.953,3.374,0.953c0.391,0,0.917-0.049,1.577-0.146
		s1.234-0.221,1.724-0.367v1.762c-0.832,0.146-1.749,0.328-2.75,0.549c-1.003,0.221-1.969,0.33-2.896,0.33
		c-3.081,0-5.354-0.758-6.822-2.271c-1.467-1.516-2.201-3.742-2.201-6.676c0-1.32,0.024-2.752,0.074-4.293
		c0.047-1.539,0.11-3.227,0.183-5.061c0.073-1.833,0.135-3.861,0.184-6.088c0.048-2.226,0.074-4.706,0.074-7.445h-2.348
		c-0.393,0-0.807,0.014-1.247,0.037c-0.439,0.024-0.905,0.062-1.394,0.109c0.048-0.294,0.085-0.574,0.109-0.844
		c0.024-0.269,0.037-0.551,0.037-0.844c0-0.244-0.013-0.488-0.037-0.732c-0.024-0.245-0.062-0.488-0.109-0.734
		c2.2,0.147,3.813,0.221,4.841,0.221c-0.05-0.978-0.086-2.201-0.11-3.667c-0.025-1.468-0.086-2.981-0.183-4.549l6.088-2.566h0.365
		V115.881z"/>
	<path fill="#FFFFFF" d="M381.231,134.77c1.05-2.322,2.432-4.206,4.144-5.648c1.711-1.44,3.631-2.494,5.759-3.153
		c2.128-0.66,4.241-0.99,6.346-0.99c2.15,0,4.277,0.33,6.381,0.99c2.102,0.659,4.009,1.713,5.722,3.153
		c1.711,1.442,3.092,3.326,4.146,5.648c1.051,2.323,1.577,5.146,1.577,8.472c0,3.327-0.526,6.151-1.577,8.471
		c-1.054,2.324-2.435,4.209-4.146,5.648c-1.713,1.443-3.62,2.457-5.722,3.045c-2.104,0.588-4.23,0.881-6.381,0.881
		c-2.104,0-4.218-0.293-6.346-0.881c-2.127-0.588-4.047-1.602-5.759-3.045c-1.712-1.439-3.093-3.324-4.144-5.648
		c-1.054-2.32-1.577-5.145-1.577-8.471C379.654,139.917,380.177,137.094,381.231,134.77z M386.659,149.184
		c0.367,1.906,0.99,3.605,1.87,5.098c0.881,1.492,2.054,2.678,3.521,3.559c1.468,0.881,3.275,1.32,5.429,1.32
		c2.15,0,3.96-0.439,5.428-1.32c1.467-0.881,2.641-2.064,3.521-3.559c0.88-1.49,1.503-3.191,1.87-5.098
		c0.367-1.908,0.551-3.889,0.551-5.942c0-2.053-0.184-4.034-0.551-5.94c-0.367-1.907-0.99-3.605-1.87-5.1
		c-0.88-1.49-2.054-2.676-3.521-3.558c-1.467-0.88-3.277-1.319-5.428-1.319c-2.153,0-3.961,0.439-5.429,1.319
		c-1.467,0.882-2.641,2.066-3.521,3.558c-0.88,1.493-1.503,3.191-1.87,5.1c-0.367,1.906-0.55,3.889-0.55,5.94
		C386.108,145.295,386.291,147.276,386.659,149.184z"/>
	<path fill="#FFFFFF" d="M422.454,125.27c1.344-3.179,3.239-5.966,5.685-8.361s5.403-4.279,8.877-5.647
		c3.471-1.368,7.334-2.055,11.59-2.055c3.912,0,7.555,0.538,10.929,1.614s6.31,2.689,8.802,4.841
		c2.494,2.151,4.463,4.877,5.905,8.179s2.164,7.152,2.164,11.554c0,3.668-0.696,7.091-2.091,10.27
		c-1.395,3.18-3.326,5.953-5.795,8.324c-2.471,2.373-5.416,4.219-8.838,5.539c-3.424,1.32-7.189,1.98-11.297,1.98
		c-3.863,0-7.494-0.479-10.893-1.432s-6.357-2.492-8.875-4.621c-2.52-2.127-4.511-4.84-5.979-8.143c-1.468-3.3-2.2-7.249-2.2-11.847
		C420.437,131.849,421.109,128.45,422.454,125.27z M463.202,125.307c-0.783-2.519-1.871-4.657-3.264-6.418
		c-1.395-1.762-3.081-3.117-5.062-4.071c-1.98-0.954-4.145-1.431-6.492-1.431c-2.493,0-4.73,0.6-6.711,1.797
		c-1.98,1.198-3.655,2.824-5.024,4.879c-1.369,2.053-2.409,4.463-3.117,7.226c-0.71,2.762-1.063,5.71-1.063,8.838
		c0,3.913,0.415,7.215,1.247,9.903c0.831,2.689,1.956,4.854,3.375,6.492c1.418,1.639,3.056,2.824,4.915,3.557
		c1.857,0.734,3.813,1.102,5.868,1.102c2.2,0,4.303-0.465,6.309-1.395c2.005-0.928,3.752-2.348,5.245-4.254
		c1.491-1.908,2.689-4.328,3.595-7.262c0.903-2.935,1.356-6.405,1.356-10.416C464.375,130.675,463.983,127.827,463.202,125.307z"/>
	<path fill="#FFFFFF" d="M493.276,130.772c1.368-2.054,2.97-3.644,4.804-4.769c1.834-1.124,3.925-1.687,6.271-1.687
		c3.668,0,6.491,1.062,8.473,3.188c1.98,2.129,2.971,5.563,2.971,10.307c0,2.494-0.05,4.695-0.146,6.603
		c-0.1,1.908-0.147,3.814-0.147,5.722c0,1.564,0.037,3.264,0.111,5.098c0.072,1.834,0.158,3.607,0.256,5.318
		c-0.636-0.1-1.443-0.146-2.42-0.146c-0.979,0-2.006,0-3.081,0c-1.076,0-2.104,0-3.081,0c-0.979,0-1.786,0.049-2.421,0.146
		c0.342-2.541,0.562-5.537,0.661-8.986c0.097-3.445,0.146-7.395,0.146-11.845c0-3.081-0.524-5.344-1.577-6.785
		c-1.052-1.441-2.529-2.164-4.438-2.164c-2.2,0-3.814,0.954-4.841,2.859c-1.027,1.908-1.54,4.55-1.54,7.924v2.935
		c0,2.983,0.036,5.793,0.109,8.434c0.072,2.643,0.23,5.186,0.477,7.631c-0.636-0.1-1.432-0.146-2.384-0.146
		c-0.953,0-1.993,0-3.117,0c-1.126,0-2.152,0-3.081,0s-1.736,0.047-2.421,0.146c0.244-2.445,0.403-4.988,0.477-7.631
		c0.074-2.641,0.111-5.451,0.111-8.434v-2.935c0-2.982-0.037-5.782-0.111-8.399c-0.073-2.615-0.231-5.244-0.477-7.886
		c0.881,0.1,1.748,0.185,2.604,0.257c0.854,0.074,1.725,0.11,2.604,0.11c0.881,0,1.748-0.036,2.604-0.11
		c0.855-0.072,1.772-0.157,2.75-0.257l-0.293,5.502H493.276z"/>
	<path fill="#FFFFFF" d="M524.89,117.421c-0.1-4.009-0.245-8.067-0.44-12.176c0.635,0.1,1.442,0.185,2.421,0.257
		c0.979,0.073,2.004,0.109,3.081,0.109c1.074,0,2.103-0.036,3.08-0.109c0.978-0.072,1.785-0.157,2.421-0.257
		c-0.196,4.107-0.343,8.167-0.439,12.176c-0.099,4.012-0.146,8.412-0.146,13.204v4.769c0,4.794,0.049,9.193,0.146,13.203
		c0.098,4.012,0.243,7.996,0.439,11.957c-0.636-0.1-1.441-0.146-2.421-0.146s-2.006,0-3.08,0c-1.077,0-2.104,0-3.081,0
		c-0.979,0-1.786,0.049-2.421,0.146c0.195-3.961,0.342-7.945,0.44-11.957c0.098-4.01,0.146-8.409,0.146-13.203v-4.769
		C525.037,125.833,524.988,121.432,524.89,117.421z"/>
	<path fill="#FFFFFF" d="M546.236,107.299c1.125-1.124,2.494-1.688,4.105-1.688c1.614,0,2.982,0.562,4.109,1.688
		c1.125,1.125,1.688,2.493,1.688,4.107s-0.562,2.983-1.688,4.108c-1.127,1.125-2.495,1.687-4.109,1.687
		c-1.611,0-2.98-0.562-4.105-1.687s-1.688-2.494-1.688-4.108S545.111,108.424,546.236,107.299z M545.319,133.156
		c-0.073-2.615-0.232-5.244-0.478-7.886c0.686,0.1,1.491,0.185,2.42,0.257c0.931,0.074,1.956,0.11,3.08,0.11
		c2.301,0,4.135-0.121,5.502-0.367c-0.244,2.642-0.402,5.271-0.476,7.886c-0.073,2.617-0.109,5.417-0.109,8.399v2.935
		c0,2.983,0.036,5.793,0.109,8.434c0.072,2.643,0.231,5.186,0.476,7.631c-0.635-0.1-1.431-0.146-2.383-0.146
		c-0.953,0-1.994,0-3.119,0c-1.124,0-2.149,0-3.08,0c-0.929,0-1.734,0.047-2.42,0.146c0.244-2.445,0.403-4.988,0.478-7.631
		c0.073-2.641,0.108-5.451,0.108-8.434v-2.935C545.429,138.573,545.392,135.773,545.319,133.156z"/>
	<path fill="#FFFFFF" d="M574.845,130.772c1.366-2.054,2.97-3.644,4.804-4.769c1.834-1.124,3.925-1.687,6.271-1.687
		c3.668,0,6.492,1.062,8.474,3.188c1.979,2.129,2.971,5.563,2.971,10.307c0,2.494-0.049,4.695-0.146,6.603
		c-0.101,1.908-0.147,3.814-0.147,5.722c0,1.564,0.037,3.264,0.11,5.098s0.157,3.607,0.257,5.318c-0.636-0.1-1.442-0.146-2.42-0.146
		c-0.979,0-2.007,0-3.082,0s-2.104,0-3.08,0c-0.979,0-1.786,0.049-2.421,0.146c0.341-2.541,0.562-5.537,0.66-8.986
		c0.098-3.445,0.146-7.395,0.146-11.845c0-3.081-0.525-5.344-1.577-6.785s-2.529-2.164-4.438-2.164c-2.2,0-3.814,0.954-4.842,2.859
		c-1.026,1.908-1.539,4.55-1.539,7.924v2.935c0,2.983,0.035,5.793,0.108,8.434c0.072,2.643,0.231,5.186,0.478,7.631
		c-0.637-0.1-1.432-0.146-2.384-0.146c-0.954,0-1.993,0-3.118,0s-2.152,0-3.08,0c-0.931,0-1.737,0.047-2.422,0.146
		c0.244-2.445,0.403-4.988,0.479-7.631c0.072-2.641,0.109-5.451,0.109-8.434v-2.935c0-2.982-0.037-5.782-0.109-8.399
		c-0.074-2.615-0.233-5.244-0.479-7.886c0.881,0.1,1.748,0.185,2.604,0.257c0.856,0.074,1.724,0.11,2.604,0.11
		s1.748-0.036,2.604-0.11c0.854-0.072,1.771-0.157,2.751-0.257l-0.294,5.502H574.845z"/>
	<path fill="#FFFFFF" d="M615.188,148.524c0.392,1.713,0.989,3.189,1.797,4.438c0.807,1.246,1.833,2.227,3.081,2.936
		c1.246,0.709,2.701,1.062,4.363,1.062c3.375,0,6.383-1.1,9.022-3.301l0.88,0.66l-1.614,4.107c-1.222,0.93-2.688,1.676-4.399,2.236
		c-1.712,0.562-3.961,0.844-6.749,0.844c-2.396,0-4.67-0.33-6.82-0.99c-2.152-0.66-4.048-1.748-5.687-3.264
		c-1.64-1.516-2.935-3.436-3.888-5.758s-1.43-5.1-1.43-8.326c0-3.179,0.427-5.941,1.283-8.289c0.854-2.348,2.04-4.303,3.558-5.867
		c1.516-1.565,3.312-2.739,5.391-3.521s4.341-1.174,6.786-1.174c4.841,0,8.546,1.418,11.112,4.254
		c2.567,2.837,3.852,6.847,3.852,12.029v1.54c0,0.439-0.025,0.733-0.073,0.881h-21.052
		C614.601,144.979,614.796,146.813,615.188,148.524z M624.541,130.918c-0.807-2.199-2.165-3.301-4.07-3.301
		c-1.078,0-1.98,0.367-2.715,1.102c-0.733,0.733-1.319,1.675-1.761,2.822c-0.44,1.15-0.771,2.446-0.989,3.89
		c-0.222,1.441-0.355,2.873-0.403,4.291h11.296C625.799,136.053,625.347,133.119,624.541,130.918z"/>
</g>
</svg>
