<?xml version="1.0" encoding="utf-8"?>
<!-- Generator: Adobe Illustrator 16.0.0, SVG Export Plug-In . SVG Version: 6.00 Build 0)  -->
<!DOCTYPE svg PUBLIC "-//W3C//DTD SVG 1.1//EN" "http://www.w3.org/Graphics/SVG/1.1/DTD/svg11.dtd">
<svg version="1.1" id="Capa_1" xmlns="http://www.w3.org/2000/svg" xmlns:xlink="http://www.w3.org/1999/xlink" x="0px" y="0px"
	 width="94px" height="66px" viewBox="0 0 94 66" enable-background="new 0 0 94 66" xml:space="preserve">
<g>
	<path fill="#A0A0A0" d="M39.138,36.665v24.709H16.32V41.868c0-10.562,1.261-18.208,3.783-22.937
		c3.311-6.305,8.552-11.074,15.724-14.306l5.202,8.276c-4.335,1.813-7.527,4.513-9.576,8.099c-2.049,3.586-3.192,8.808-3.429,15.664
		H39.138z M75.787,36.665v24.709H52.97V41.868c0-10.562,1.261-18.208,3.783-22.937c3.312-6.305,8.554-11.074,15.726-14.306
		l5.2,8.276c-4.334,1.813-7.525,4.513-9.576,8.099c-2.048,3.586-3.19,8.808-3.427,15.664H75.787z"/>
</g>
</svg>
